Normalized EMG Linear Envelopes
nRows=140
nColumns=4

endheader
time	 med_gas_r	  soleus_r	 tib_ant_r	
3.0625	  0.002348	  0.010984	  0.001304	
3.125	  0.002327	  0.011527	  0.001242	
3.1875	  0.002309	  0.011929	  0.001201	
3.25	  0.002283	  0.012145	  0.001203	
3.3125	  0.002238	  0.012207	  0.001242	
3.375	  0.002175	  0.012127	  0.001276	
3.4375	  0.002111	  0.011889	  0.001272	
3.5	  0.002069	  0.011515	  0.001250	
3.5625	  0.002058	  0.011108	  0.001248	
3.625	  0.002074	  0.010796	  0.001280	
3.6875	  0.002106	  0.010663	  0.001328	
3.75	  0.002138	  0.010748	  0.001367	
3.8125	  0.002162	  0.011051	  0.001390	
3.875	  0.002177	  0.011452	  0.001407	
3.9375	  0.002176	  0.011705	  0.001412	
4	  0.002151	  0.011690	  0.001389	
4.0625	  0.002122	  0.011578	  0.001341	
4.125	  0.002120	  0.011564	  0.001293	
4.1875	  0.002120	  0.011496	  0.001266	
4.25	  0.001998	  0.010945	  0.001258	
4.3125	  0.001547	  0.009546	  0.001245	
4.375	  0.000582	  0.007253	  0.001199	
4.4375	 -0.000742	  0.004783	  0.001108	
4.5	 -0.001452	  0.004313	  0.001025	
4.5625	  0.000622	  0.010069	  0.001115	
4.625	  0.008756	  0.028086	  0.001663	
4.6875	  0.025603	  0.062596	  0.002952	
4.75	  0.050249	  0.111281	  0.005036	
4.8125	  0.078367	  0.168515	  0.007757	
4.875	  0.106279	  0.231032	  0.010900	
4.9375	  0.131890	  0.290762	  0.013937	
5	  0.151830	  0.329663	  0.015885	
5.0625	  0.164210	  0.337782	  0.016140	
5.125	  0.175462	  0.328839	  0.015220	
5.1875	  0.197201	  0.325206	  0.014183	
5.25	  0.233382	  0.336405	  0.013764	
5.3125	  0.275076	  0.358363	  0.014333	
5.375	  0.310179	  0.383543	  0.016064	
5.4375	  0.334703	  0.406640	  0.018855	
5.5	  0.351529	  0.423473	  0.022242	
5.5625	  0.363025	  0.429643	  0.025448	
5.625	  0.371822	  0.426037	  0.027835	
5.6875	  0.383971	  0.421799	  0.029516	
5.75	  0.401953	  0.425207	  0.031074	
5.8125	  0.418589	  0.436420	  0.032715	
5.875	  0.425792	  0.450874	  0.034210	
5.9375	  0.424829	  0.463117	  0.035261	
6	  0.423083	  0.469823	  0.035560	
6.0625	  0.426501	  0.474059	  0.035287	
6.125	  0.437609	  0.482946	  0.035633	
6.1875	  0.455929	  0.500304	  0.037931	
6.25	  0.478448	  0.522839	  0.042246	
6.3125	  0.500654	  0.542223	  0.047263	
6.375	  0.519516	  0.554930	  0.051454	
6.4375	  0.536934	  0.569072	  0.054083	
6.5	  0.557016	  0.593081	  0.055416	
6.5625	  0.579294	  0.622388	  0.056297	
6.625	  0.596161	  0.644382	  0.057067	
6.6875	  0.599166	  0.650300	  0.057000	
6.75	  0.591298	  0.641078	  0.055713	
6.8125	  0.587662	  0.626095	  0.054376	
6.875	  0.600431	  0.615462	  0.054233	
6.9375	  0.629162	  0.615033	  0.054963	
7	  0.663384	  0.628222	  0.055590	
7.0625	  0.689831	  0.655008	  0.055883	
7.125	  0.699498	  0.687517	  0.056297	
7.1875	  0.688534	  0.710068	  0.057372	
7.25	  0.656243	  0.707613	  0.059162	
7.3125	  0.608727	  0.681328	  0.060827	
7.375	  0.562674	  0.652770	  0.061464	
7.4375	  0.538162	  0.641410	  0.061064	
7.5	  0.543749	  0.643188	  0.059904	
7.5625	  0.570181	  0.640580	  0.058268	
7.625	  0.598369	  0.625722	  0.057166	
7.6875	  0.611214	  0.606492	  0.057523	
7.75	  0.602373	  0.595812	  0.058639	
7.8125	  0.579025	  0.600885	  0.058818	
7.875	  0.556009	  0.620901	  0.057294	
7.9375	  0.546099	  0.646479	  0.054765	
8	  0.552958	  0.661056	  0.052439	
8.0625	  0.570148	  0.656338	  0.051500	
8.125	  0.586933	  0.645425	  0.053083	
8.1875	  0.595403	  0.646635	  0.057309	
8.25	  0.594083	  0.658647	  0.062345	
8.3125	  0.588712	  0.663189	  0.065587	
8.375	  0.587015	  0.650263	  0.065851	
8.4375	  0.589658	  0.634592	  0.063880	
8.5	  0.592932	  0.643365	  0.061422	
8.5625	  0.599502	  0.686204	  0.060463	
8.625	  0.614690	  0.740996	  0.062331	
8.6875	  0.634483	  0.773198	  0.066363	
8.75	  0.648954	  0.767307	  0.069798	
8.8125	  0.655330	  0.737327	  0.069973	
8.875	  0.659529	  0.708627	  0.066987	
8.9375	  0.666437	  0.694184	  0.063639	
9	  0.672987	  0.690102	  0.062540	
9.0625	  0.671018	  0.687893	  0.063920	
9.125	  0.657135	  0.686074	  0.066361	
9.1875	  0.637788	  0.690111	  0.068634	
9.25	  0.621521	  0.701801	  0.069840	
9.3125	  0.609815	  0.714661	  0.069001	
9.375	  0.599409	  0.718574	  0.066260	
9.4375	  0.587246	  0.702313	  0.063144	
9.5	  0.566909	  0.660836	  0.060296	
9.5625	  0.526369	  0.600831	  0.056747	
9.625	  0.456961	  0.525577	  0.052411	
9.6875	  0.364057	  0.425608	  0.049858	
9.75	  0.264919	  0.300525	  0.051963	
9.8125	  0.174841	  0.175198	  0.057021	
9.875	  0.100310	  0.080104	  0.058273	
9.9375	  0.045082	  0.026170	  0.050758	
10	  0.012085	  0.004821	  0.036672	
10.0625	 -0.001595	  0.001702	  0.022230	
10.125	 -0.003763	  0.005477	  0.011779	
10.1875	 -0.001476	  0.009896	  0.006031	
10.25	  0.001290	  0.012798	  0.003639	
10.3125	  0.003037	  0.014252	  0.002957	
10.375	  0.003682	  0.015017	  0.002868	
10.4375	  0.003656	  0.015446	  0.002841	
10.5	  0.003390	  0.015188	  0.002736	
10.5625	  0.003159	  0.014002	  0.002583	
10.625	  0.003085	  0.012450	  0.002394	
10.6875	  0.003166	  0.011345	  0.002144	
10.75	  0.003286	  0.010933	  0.001866	
10.8125	  0.003286	  0.010945	  0.001653	
10.875	  0.003119	  0.011068	  0.001557	
10.9375	  0.002868	  0.011165	  0.001545	
11	  0.002638	  0.011263	  0.001549	
11.0625	  0.002475	  0.011423	  0.001525	
11.125	  0.002365	  0.011623	  0.001479	
11.1875	  0.002278	  0.011753	  0.001442	
11.25	  0.002205	  0.011738	  0.001452	
11.3125	  0.002162	  0.011612	  0.001526	
11.375	  0.002155	  0.011482	  0.001640	
11.4375	  0.002169	  0.011449	  0.001747	
11.5	  0.002193	  0.011571	  0.001806	
11.5625	  0.002249	  0.011835	  0.001809	
11.625	  0.002345	  0.012133	  0.001788	
11.6875	  0.002455	  0.012308	  0.001782	
11.75	  0.002557	  0.012328	  0.001804	
